<?xml version="1.0" encoding="utf-8"?>
<!-- Generator: Adobe Illustrator 27.5.0, SVG Export Plug-In . SVG Version: 6.00 Build 0)  -->
<svg version="1.1" id="Layer_1" xmlns="http://www.w3.org/2000/svg" xmlns:xlink="http://www.w3.org/1999/xlink" x="0px" y="0px"
	 viewBox="0 0 50 50" style="enable-background:new 0 0 50 50;" xml:space="preserve">
<style type="text/css">
	.st0{fill:#C6C6C5;}
</style>
<g>
	<path class="st0" d="M22.92,25.38c0.53-0.18,1.01-0.47,1.43-0.87c0.04-0.04,0.09-0.06,0.15-0.05l1.58,0.22l-0.84-1.3
		c-0.03-0.05-0.04-0.11-0.02-0.16c0.34-0.84,0.37-1.78,0.08-2.64c-0.53-1.58-2.02-2.59-3.6-2.59c-0.4,0-0.81,0.06-1.21,0.2
		c-0.96,0.32-1.74,1-2.19,1.91c-0.45,0.91-0.52,1.94-0.2,2.9c0.32,0.96,1,1.74,1.91,2.19C20.93,25.63,21.96,25.7,22.92,25.38
		L22.92,25.38z"/>
	<path class="st0" d="M34,14.75c-2.39,0-4.33,1.89-4.33,4.22c0,1.01,0.37,1.98,1.05,2.75c0.04,0.04,0.05,0.11,0.04,0.16l-0.44,1.7
		l1.66-0.81c0.05-0.02,0.11-0.02,0.15,0c0.59,0.27,1.22,0.41,1.86,0.41c2.39,0,4.33-1.89,4.33-4.22
		C38.33,16.64,36.38,14.75,34,14.75L34,14.75z"/>
	<path class="st0" d="M32.75,28.02c-0.02,0.01-0.05,0.02-0.07,0.03c-0.19,0.28-1.29,1.88-3.02,2.66c-0.02,0.01-0.05,0.02-0.07,0.02
		c-0.07,0-0.13-0.04-0.16-0.11c-0.04-0.09,0-0.2,0.09-0.24c1.76-0.79,2.88-2.55,2.89-2.57l0,0l0,0c0.1-0.14,0.15-0.31,0.2-0.49
		c0.04-0.14,0.05-0.31-0.04-0.42c-0.11-0.13-0.32-0.14-0.47-0.09c-0.19,0.06-0.34,0.19-0.5,0.33c0,0,0,0-0.01,0.01
		c-0.14,0.19-1.61,2.18-3.12,2.63c-0.02,0-0.03,0.01-0.05,0.01c-0.08,0-0.15-0.05-0.17-0.13c-0.03-0.1,0.03-0.2,0.12-0.22
		c1.44-0.43,2.93-2.49,2.94-2.51c0-0.01,0.01-0.01,0.02-0.01c0-0.01,0.01-0.01,0.01-0.02c0.14-0.12,0.19-0.33,0.12-0.5
		s-0.26-0.28-0.44-0.27c-0.24,0.02-0.44,0.23-0.65,0.46c-0.18,0.2-0.36,0.4-0.54,0.59c-0.15,0.16-0.3,0.32-0.44,0.49
		c-0.03,0.04-0.07,0.08-0.11,0.12l0,0l0,0c-0.05,0.04-1.25,1.08-1.89,1.42c-0.03,0.01-0.06,0.02-0.08,0.02
		c-0.06,0-0.13-0.03-0.16-0.1c-0.05-0.09-0.01-0.2,0.08-0.24c0.59-0.31,1.73-1.29,1.82-1.36c0.02-0.03,0.05-0.06,0.07-0.08
		c0.1-0.14,0.11-0.32,0.04-0.51c-0.04-0.1-0.14-0.19-0.25-0.21c-0.09-0.02-0.2,0-0.31,0.05c-0.06,0.03-0.13,0.1-0.2,0.16
		c-0.04,0.04-0.08,0.08-0.12,0.11c-0.23,0.19-0.57,0.48-0.73,0.62c-0.07,0.06-0.15,0.12-0.23,0.17c-0.87,0.55-1.56,0.66-2.93,0.87
		c-0.29,0.04-0.61,0.09-0.98,0.15c-1.75,0.29-2.26,0.81-2.37,0.95v4.44c4.5,0.01,4.69-0.09,5.47-0.53c0.26-0.14,0.58-0.32,1.11-0.54
		c0.47-0.19,0.93-0.41,1.38-0.65c0.05-0.12,0.15-0.48-0.14-0.73c-0.12-0.1-0.28-0.16-0.49-0.19c-0.31-0.04-0.64,0.04-0.95,0.21
		c-0.81,0.45-0.97,0.54-1.04,0.55c-0.01,0.01-0.03,0.02-0.06,0.03c-0.2,0.1-0.69,0.33-1.3,0.3c-0.1,0-0.18-0.09-0.17-0.19
		c0-0.1,0.09-0.18,0.19-0.17c0.52,0.02,0.95-0.18,1.13-0.27c0.06-0.03,0.1-0.05,0.14-0.06c0.04-0.02,0.21-0.1,0.94-0.51
		c0.38-0.21,0.78-0.3,1.17-0.25c0.28,0.03,0.51,0.12,0.68,0.27c0.27,0.23,0.33,0.52,0.31,0.78c0.41-0.23,0.82-0.47,1.21-0.73
		c0.17-0.12,0.36-0.23,0.55-0.35c0.7-0.44,1.5-0.94,1.95-1.6c0.13-0.19,0.25-0.4,0.35-0.61c0.02-0.05,0.04-0.09,0.06-0.14
		c0.15-0.36,0.14-0.67-0.01-0.82C33.36,27.89,33.09,27.88,32.75,28.02L32.75,28.02z"/>
	<path class="st0" d="M18.66,28.49h-2.31v6.76h2.52v-6.56C18.87,28.58,18.78,28.49,18.66,28.49L18.66,28.49z"/>
	<path class="st0" d="M20.69,29.73v4.68c0,0.37-0.3,0.66-0.67,0.66h-0.83v-6.05h0.83c0.37,0,0.67,0.3,0.67,0.66V29.73L20.69,29.73z"
		/>
</g>
</svg>
