<?xml version="1.0" encoding="utf-8"?>
<!-- Generator: Adobe Illustrator 27.5.0, SVG Export Plug-In . SVG Version: 6.00 Build 0)  -->
<svg version="1.1" id="Layer_1" xmlns="http://www.w3.org/2000/svg" xmlns:xlink="http://www.w3.org/1999/xlink" x="0px" y="0px"
	 viewBox="0 0 50 50" style="enable-background:new 0 0 50 50;" xml:space="preserve">
<style type="text/css">
	.st0{fill:#C6C6C5;}
</style>
<path class="st0" d="M22.19,15.91c-0.2,0.02-0.39,0.06-0.58,0.12l-3.44,1.17c-1.35,0.46-2.26,1.73-2.26,3.15v11.42
	c0,1.32,1.33,2.28,2.58,1.85l3.43-1.17c0.19-0.07,0.37-0.08,0.55-0.07s0.35,0.04,0.52,0.1c1.23,0.5,2.47,1.01,3.52,1.44
	c0.35,0.15,0.68,0.17,1.03,0.16c0.35-0.01,0.7-0.09,1.01-0.24c1.16-0.59,2.31-1.18,3.47-1.77c1.27-0.65,2.07-1.96,2.08-3.39V18.3
	c0-1.08-0.89-1.97-1.97-1.96c-0.21,0-0.41,0.04-0.61,0.1c-1.15,0.39-2.29,0.78-3.43,1.17c-0.17,0.05-0.35,0.07-0.52,0.07h-0.01
	h-0.01c-0.18,0-0.35-0.04-0.52-0.1c-1.22-0.5-2.44-1-3.66-1.5c-0.28-0.11-0.57-0.16-0.87-0.17C22.38,15.91,22.28,15.92,22.19,15.91
	L22.19,15.91z M22.98,17.03c1.28,0.52,2.58,1.05,3.67,1.5c0.12,0.05,0.25,0.04,0.37,0.07v14.41c-0.05-0.01-0.1,0-0.15-0.02
	c-1.17-0.48-2.35-0.96-3.52-1.44c-0.12-0.05-0.25-0.04-0.37-0.07L22.98,17.03z"/>
</svg>
