<?xml version="1.0" encoding="utf-8"?>
<!-- Generator: Adobe Illustrator 27.5.0, SVG Export Plug-In . SVG Version: 6.00 Build 0)  -->
<svg version="1.1" id="Layer_1" xmlns="http://www.w3.org/2000/svg" xmlns:xlink="http://www.w3.org/1999/xlink" x="0px" y="0px"
	 viewBox="0 0 50 50" style="enable-background:new 0 0 50 50;" xml:space="preserve">
<style type="text/css">
	.st0{fill:#C6C6C5;}
</style>
<path class="st0" d="M16.45,26.76l1.21,0.31c0.06,0.02,0.11,0.06,0.13,0.13c0.14,0.46,0.33,0.91,0.56,1.34
	c0.03,0.06,0.03,0.13,0,0.18l-0.64,1.08c-0.2,0.34-0.14,0.77,0.14,1.05l1.3,1.3c0.28,0.28,0.71,0.34,1.05,0.14l1.08-0.64
	c0.06-0.03,0.12-0.03,0.18,0c0.43,0.23,0.88,0.42,1.34,0.56c0.06,0.02,0.11,0.07,0.13,0.13l0.31,1.21c0.1,0.38,0.44,0.65,0.84,0.65
	h1.84c0.4,0,0.74-0.27,0.84-0.65l0.31-1.21c0.02-0.06,0.06-0.11,0.13-0.13c0.46-0.14,0.91-0.33,1.34-0.56
	c0.06-0.03,0.13-0.03,0.18,0l1.08,0.64c0.34,0.2,0.77,0.14,1.05-0.14l1.3-1.3c0.28-0.28,0.34-0.71,0.14-1.05l-0.64-1.08
	c-0.03-0.06-0.03-0.12,0-0.18c0.23-0.43,0.42-0.88,0.56-1.34c0.02-0.06,0.07-0.11,0.13-0.13l1.21-0.31c0.38-0.1,0.65-0.44,0.65-0.84
	v-1.84c0-0.4-0.27-0.74-0.65-0.84l-1.21-0.31c-0.06-0.02-0.11-0.06-0.13-0.13c-0.14-0.46-0.33-0.91-0.56-1.34
	c-0.03-0.06-0.03-0.13,0-0.18l0.64-1.08c0.2-0.34,0.14-0.77-0.14-1.05l-1.3-1.3c-0.28-0.28-0.71-0.34-1.05-0.14l-1.08,0.64
	c-0.06,0.03-0.12,0.03-0.18,0c-0.43-0.23-0.88-0.42-1.34-0.56c-0.06-0.02-0.11-0.07-0.13-0.13l-0.31-1.21
	c-0.1-0.38-0.44-0.65-0.84-0.65h-1.84c-0.4,0-0.74,0.27-0.84,0.65l-0.31,1.21c-0.02,0.06-0.06,0.11-0.13,0.13
	c-0.46,0.14-0.91,0.33-1.34,0.56c-0.06,0.03-0.13,0.03-0.18,0l-1.08-0.64c-0.34-0.2-0.77-0.14-1.05,0.14l-1.3,1.3
	c-0.28,0.28-0.34,0.71-0.14,1.05l0.64,1.08c0.03,0.06,0.03,0.12,0,0.18c-0.23,0.43-0.42,0.88-0.56,1.34
	c-0.02,0.06-0.07,0.11-0.13,0.13l-1.21,0.31c-0.38,0.1-0.65,0.44-0.65,0.84v1.84C15.8,26.32,16.07,26.66,16.45,26.76L16.45,26.76z
	 M21.21,23.91l0.95-1.65c0.39-0.67,1.12-1.09,1.89-1.09h1.9c0.78,0,1.51,0.42,1.89,1.09l0.95,1.65c0.39,0.67,0.39,1.51,0,2.19
	l-0.95,1.65c-0.39,0.67-1.12,1.09-1.89,1.09h-1.9c-0.78,0-1.51-0.42-1.89-1.09l-0.95-1.65C20.82,25.42,20.82,24.58,21.21,23.91
	L21.21,23.91z"/>
</svg>
